<svg width="14" height="11" viewBox="0 0 14 11" fill="none" xmlns="http://www.w3.org/2000/svg">
<path d="M6.33333 0.166748C6.11232 0.166748 5.90036 0.254545 5.74408 0.410825C5.5878 0.567105 5.5 0.779068 5.5 1.00008V2.66675C5.49635 2.95408 5.4175 3.23545 5.27129 3.48283C5.12508 3.73022 4.91662 3.93498 4.66667 4.07675V1.00008C4.66667 0.779068 4.57887 0.567105 4.42259 0.410825C4.26631 0.254545 4.05435 0.166748 3.83333 0.166748C3.61232 0.166748 3.40036 0.254545 3.24408 0.410825C3.0878 0.567105 3 0.779068 3 1.00008V4.07675C2.75004 3.93498 2.54158 3.73022 2.39538 3.48283C2.24917 3.23545 2.17032 2.95408 2.16667 2.66675V1.00008C2.16667 0.779068 2.07887 0.567105 1.92259 0.410825C1.76631 0.254545 1.55435 0.166748 1.33333 0.166748C1.11232 0.166748 0.900358 0.254545 0.744078 0.410825C0.587798 0.567105 0.5 0.779068 0.5 1.00008V2.66675C0.502761 3.40359 0.749596 4.11876 1.20192 4.70044C1.65424 5.28213 2.28655 5.69754 3 5.88175V9.33342C3 9.55443 3.0878 9.76639 3.24408 9.92267C3.40036 10.079 3.61232 10.1667 3.83333 10.1667C4.05435 10.1667 4.26631 10.079 4.42259 9.92267C4.57887 9.76639 4.66667 9.55443 4.66667 9.33342V5.88175C5.38012 5.69754 6.01243 5.28213 6.46475 4.70044C6.91707 4.11876 7.16391 3.40359 7.16667 2.66675V1.00008C7.16667 0.779068 7.07887 0.567105 6.92259 0.410825C6.76631 0.254545 6.55435 0.166748 6.33333 0.166748ZM10.04 0.255082C9.91295 0.191418 9.77173 0.161301 9.62977 0.167594C9.4878 0.173886 9.3498 0.216379 9.22888 0.291034C9.10796 0.365689 9.00815 0.470025 8.93892 0.594128C8.86968 0.71823 8.83334 0.857975 8.83333 1.00008V9.33342C8.83333 9.55443 8.92113 9.76639 9.07741 9.92267C9.23369 10.079 9.44565 10.1667 9.66667 10.1667C9.88768 10.1667 10.0996 10.079 10.2559 9.92267C10.4122 9.76639 10.5 9.55443 10.5 9.33342V8.31842L12.8867 7.72008C13.1746 7.64202 13.4264 7.46636 13.5991 7.22314C13.7717 6.97993 13.8545 6.68428 13.8333 6.38675C13.8355 5.11269 13.4815 3.86338 12.8112 2.77989C12.1409 1.6964 11.181 0.821885 10.04 0.255082Z" fill="#A098AE"/>
</svg>
