<svg width="29" height="25" viewBox="0 0 29 25" fill="none" xmlns="http://www.w3.org/2000/svg">
<path d="M26.5001 6.66667H25.6667V2.5C25.6667 1.83696 25.4034 1.20107 24.9345 0.732233C24.4657 0.263392 23.8298 0 23.1667 0H3.16675C2.50371 0 1.86782 0.263392 1.39898 0.732233C0.93014 1.20107 0.666748 1.83696 0.666748 2.5V15.8333C0.666748 16.4964 0.93014 17.1323 1.39898 17.6011C1.86782 18.0699 2.50371 18.3333 3.16675 18.3333H4.00008V19.8333C4.00076 20.0802 4.07442 20.3213 4.21179 20.5264C4.34916 20.7315 4.54412 20.8914 4.77213 20.986C5.00014 21.0806 5.25104 21.1057 5.49325 21.058C5.73547 21.0104 5.9582 20.8922 6.13341 20.7183L8.51175 18.3333H10.6667V19.1667C10.6667 19.8297 10.9301 20.4656 11.399 20.9344C11.8678 21.4033 12.5037 21.6667 13.1667 21.6667H21.1551L23.5334 24.045C23.7079 24.2193 23.9301 24.3381 24.172 24.3864C24.4138 24.4347 24.6646 24.4103 24.8927 24.3164C25.1207 24.2225 25.3159 24.0633 25.4537 23.8587C25.5914 23.6541 25.6655 23.4133 25.6667 23.1667V21.6667H26.5001C27.1631 21.6667 27.799 21.4033 28.2678 20.9344C28.7367 20.4656 29.0001 19.8297 29.0001 19.1667V9.16667C29.0001 8.50363 28.7367 7.86774 28.2678 7.3989C27.799 6.93006 27.1631 6.66667 26.5001 6.66667ZM24.0001 15.8333C24.0001 16.0543 23.9123 16.2663 23.756 16.4226C23.5997 16.5789 23.3878 16.6667 23.1667 16.6667H8.16675C8.05724 16.6665 7.94877 16.6879 7.84753 16.7296C7.74629 16.7714 7.65428 16.8327 7.57675 16.91L5.66675 18.8217V17.5C5.66675 17.279 5.57895 17.067 5.42267 16.9107C5.26639 16.7545 5.05443 16.6667 4.83341 16.6667H3.16675C2.94573 16.6667 2.73377 16.5789 2.57749 16.4226C2.42121 16.2663 2.33341 16.0543 2.33341 15.8333V2.5C2.33341 2.27899 2.42121 2.06702 2.57749 1.91074C2.73377 1.75446 2.94573 1.66667 3.16675 1.66667H23.1667C23.3878 1.66667 23.5997 1.75446 23.756 1.91074C23.9123 2.06702 24.0001 2.27899 24.0001 2.5V15.8333Z" fill="#A098AE"/>
</svg>
