<svg width="12" height="9" viewBox="0 0 12 9" fill="none" xmlns="http://www.w3.org/2000/svg">
<path d="M6.16656 0.666748C5.94554 0.666748 5.73358 0.754545 5.5773 0.910825C5.42102 1.06711 5.33322 1.27907 5.33322 1.50008V2.40675C4.14612 2.57881 3.04067 3.11184 2.16681 3.93353C1.29294 4.75522 0.692955 5.82581 0.448226 7.00008C0.398734 7.24254 0.403851 7.49297 0.463208 7.7332C0.522564 7.97343 0.63467 8.19743 0.791385 8.38893C0.948099 8.58044 1.14549 8.73464 1.36923 8.84035C1.59297 8.94606 1.83744 9.00063 2.08489 9.00008H10.2516C10.499 9.00063 10.7435 8.94606 10.9672 8.84035C11.191 8.73464 11.3884 8.58044 11.5451 8.38893C11.7018 8.19743 11.8139 7.97343 11.8732 7.7332C11.9326 7.49297 11.9377 7.24254 11.8882 7.00008C11.6433 5.82533 11.0428 4.7544 10.1683 3.93266C9.29378 3.11092 8.18759 2.57818 6.99989 2.40675V1.50008C6.99989 1.27907 6.91209 1.06711 6.75581 0.910825C6.59953 0.754545 6.38757 0.666748 6.16656 0.666748Z" fill="#A098AE"/>
</svg>
