<svg width="28" height="29" viewBox="0 0 28 29" fill="none" xmlns="http://www.w3.org/2000/svg">
<path d="M26.5 4.00012C26.279 4.00012 26.067 4.08792 25.9108 4.2442C25.7545 4.40048 25.6667 4.61244 25.6667 4.83345V5.74679C24.3476 4.15324 22.6922 2.87135 20.8192 1.99306C18.9462 1.11477 16.902 0.661853 14.8334 0.666788C12.5036 0.666839 10.2098 1.24146 8.1552 2.33975C6.10057 3.43805 4.34852 5.02611 3.05425 6.96327C1.75997 8.90043 0.963423 11.1269 0.735158 13.4454C0.506893 15.764 0.853959 18.103 1.74561 20.2554C2.63727 22.4078 4.04598 24.307 5.84698 25.7849C7.64797 27.2628 9.78566 28.2737 12.0707 28.7281C14.3557 29.1825 16.7175 29.0663 18.9469 28.3899C21.1763 27.7134 23.2044 26.4976 24.8517 24.8501C25.0086 24.693 25.0967 24.4799 25.0965 24.2579C25.0964 24.0358 25.008 23.8229 24.8509 23.666C24.6937 23.509 24.4807 23.421 24.2586 23.4211C24.0365 23.4213 23.8236 23.5096 23.6667 23.6668C21.8666 25.4704 19.5583 26.6808 17.0511 27.1358C14.5438 27.5908 11.9574 27.2687 9.63835 26.2125C7.31932 25.1564 5.37846 23.4167 4.07582 21.2267C2.77319 19.0366 2.17102 16.5007 2.34999 13.9588C2.52896 11.4169 3.48053 8.99036 5.07719 7.00441C6.67385 5.01846 8.83932 3.56792 11.2835 2.84715C13.7276 2.12639 16.3337 2.16983 18.7524 2.97166C21.1712 3.77348 23.2871 5.29539 24.8167 7.33345H23.1667C22.9457 7.33345 22.7337 7.42125 22.5774 7.57753C22.4212 7.73381 22.3334 7.94577 22.3334 8.16679C22.3334 8.3878 22.4212 8.59976 22.5774 8.75604C22.7337 8.91232 22.9457 9.00012 23.1667 9.00012H26.5C26.721 9.00012 26.933 8.91232 27.0893 8.75604C27.2456 8.59976 27.3334 8.3878 27.3334 8.16679V4.83345C27.3334 4.61244 27.2456 4.40048 27.0893 4.2442C26.933 4.08792 26.721 4.00012 26.5 4.00012Z" fill="#A098AE"/>
</svg>
