<svg width="22" height="19" viewBox="0 0 22 19" fill="none" xmlns="http://www.w3.org/2000/svg">
<path d="M6.99999 0.833333V10.4883L0.576662 16.91C0.420184 17.0665 0.332275 17.2787 0.332275 17.5C0.332275 17.7213 0.420184 17.9335 0.576662 18.09C0.733139 18.2465 0.945369 18.3344 1.16666 18.3344C1.38795 18.3344 1.60018 18.2465 1.75666 18.09L8.42333 11.4233C8.50066 11.3458 8.56196 11.2538 8.60371 11.1526C8.64547 11.0513 8.66686 10.9428 8.66666 10.8333V0.833333C8.66666 0.61232 8.57886 0.400358 8.42258 0.244078C8.2663 0.0877975 8.05434 0 7.83333 0C7.61231 0 7.40035 0.0877975 7.24407 0.244078C7.08779 0.400358 6.99999 0.61232 6.99999 0.833333ZM21.1667 16.6667H11.1667C10.9456 16.6667 10.7337 16.7545 10.5774 16.9107C10.4211 17.067 10.3333 17.279 10.3333 17.5C10.3333 17.721 10.4211 17.933 10.5774 18.0893C10.7337 18.2455 10.9456 18.3333 11.1667 18.3333H21.1667C21.3877 18.3333 21.5996 18.2455 21.7559 18.0893C21.9122 17.933 22 17.721 22 17.5C22 17.279 21.9122 17.067 21.7559 16.9107C21.5996 16.7545 21.3877 16.6667 21.1667 16.6667Z" fill="#A098AE"/>
</svg>
