<svg width="56" height="57" viewBox="0 0 56 57" fill="none" xmlns="http://www.w3.org/2000/svg">
<g clip-path="url(#clip0_115_275)">
<path d="M37.5667 37.5417H18.6084V50.4917H37.5667V37.5417Z" fill="#A6C44A"/>
<path d="M42.5833 12.1666C42.35 12.1666 42.0583 12.1666 41.825 12.225C40.0166 6.39163 34.1833 2.1333 27.2416 2.1333C21.1166 2.1333 15.8083 5.4583 13.4166 10.3C6.76662 11 1.57495 16.1916 1.57495 22.55C1.57495 29.375 7.64162 34.975 15.0499 34.975C19.4833 34.975 23.45 32.9916 25.9 29.9583C26.3083 30.0166 26.775 30.0166 27.2416 30.0166C29.1666 30.0166 31.0333 29.6666 32.7833 29.025C34.8833 31.9416 38.5 33.8666 42.6416 33.8666C49.1749 33.8666 54.4833 29.025 54.4833 23.0166C54.4833 17.0083 49.1166 12.1666 42.5833 12.1666Z" fill="#F8B602"/>
<path d="M15.1082 36.0832C6.99989 36.0832 0.466553 30.0166 0.466553 22.5499C0.466553 15.8999 5.71655 10.2416 12.7166 9.19155C15.4582 4.17489 21.1166 0.966553 27.2416 0.966553C34.1832 0.966553 40.3666 5.04989 42.6415 11.0582C49.7582 11.0582 55.5916 16.4249 55.5916 23.0749C55.5916 29.6666 49.7582 35.0916 42.6415 35.0916C38.6166 35.0916 34.8249 33.3416 32.3749 30.4249C30.6832 30.9499 28.9916 31.1832 27.2416 31.1832C26.9499 31.1832 26.6582 31.1832 26.4249 31.1832C23.6249 34.2749 19.5416 36.0832 15.1082 36.0832ZM27.2416 3.24155C21.7582 3.24155 16.7416 6.21655 14.4666 10.7666L14.1749 11.3499L13.5332 11.4082C7.40822 12.1082 2.74155 16.8916 2.74155 22.5499C2.74155 28.7332 8.28322 33.8082 15.1082 33.8082C19.0749 33.8082 22.6916 32.1166 25.0249 29.1999L25.4332 28.7332L26.0166 28.7916C26.3666 28.7916 26.7749 28.8499 27.2416 28.8499C28.9916 28.8499 30.7416 28.5582 32.3749 27.9749L33.1916 27.6832L33.7166 28.3832C35.6999 31.1249 39.0249 32.7582 42.6415 32.7582C48.5332 32.7582 53.3166 28.3832 53.3166 23.0749C53.3166 17.7666 48.4749 13.3332 42.5832 13.3332C42.4082 13.3332 42.2332 13.3332 42.0582 13.3332L41.0082 13.3916L40.7166 12.5166C39.0249 7.09155 33.4832 3.24155 27.2416 3.24155Z" fill="#2E2E2E"/>
<path d="M42.35 56.0333H13.65L7.9917 31.9417L10.0334 32.8167C11.6667 33.4584 13.3584 33.8083 15.1084 33.8083C19.075 33.8083 22.6917 32.1167 25.025 29.2L25.4334 28.7334L26.0167 28.7917C26.3667 28.7917 26.775 28.85 27.2417 28.85C28.9917 28.85 30.7417 28.5583 32.375 27.975L33.1917 27.6833L33.7167 28.3834C35.7 31.125 39.025 32.7583 42.6417 32.7583C43.8667 32.7583 45.0917 32.5833 46.2584 32.175L48.1834 31.5334L42.35 56.0333ZM15.4584 53.7584H40.6L45.0917 34.8C44.275 34.9167 43.4584 35.0334 42.6417 35.0334C38.6167 35.0334 34.825 33.2834 32.375 30.3667C30.6834 30.8917 28.9917 31.125 27.2417 31.125C26.95 31.125 26.6584 31.125 26.425 31.125C23.625 34.275 19.5417 36.0834 15.1084 36.0834C13.7667 36.0834 12.425 35.9084 11.2 35.6167L15.4584 53.7584Z" fill="#2E2E2E"/>
<path d="M23.5667 39.9333H21.2917V47.575H23.5667V39.9333Z" fill="#2E2E2E"/>
<path d="M29.2249 39.9333H26.95V47.575H29.2249V39.9333Z" fill="#2E2E2E"/>
<path d="M34.8251 39.9333H32.55V47.575H34.8251V39.9333Z" fill="#2E2E2E"/>
<path d="M13.5617 28.34L11.7327 26.6235L10.1759 28.2825L12.0049 29.9989L13.5617 28.34Z" fill="#2E2E2E"/>
<path d="M15.3772 18.1127L13.5481 16.3962L11.9913 18.0552L13.8204 19.7716L15.3772 18.1127Z" fill="#2E2E2E"/>
<path d="M44.6504 18.9809L42.8215 17.2642L41.2645 18.9229L43.0933 20.6396L44.6504 18.9809Z" fill="#2E2E2E"/>
<path d="M35.3825 21.2482L33.5535 19.5317L31.9967 21.1907L33.8257 22.9071L35.3825 21.2482Z" fill="#2E2E2E"/>
<path d="M47.3567 27.4416L45.5276 25.7251L43.9708 27.384L45.7999 29.1005L47.3567 27.4416Z" fill="#2E2E2E"/>
<path d="M24.1421 22.9562L22.313 21.2397L20.7562 22.8987L22.5853 24.6151L24.1421 22.9562Z" fill="#2E2E2E"/>
<path d="M25.8274 12.9652L23.9983 11.2488L22.4415 12.9077L24.2706 14.6242L25.8274 12.9652Z" fill="#2E2E2E"/>
<path d="M34.4965 10.1943L32.6675 8.47778L31.1107 10.1367L32.9398 11.8532L34.4965 10.1943Z" fill="#2E2E2E"/>
</g>
<defs>
<clipPath id="clip0_115_275">
<rect width="56" height="56" fill="white" transform="translate(0 0.5)"/>
</clipPath>
</defs>
</svg>
