<svg width="29" height="29" viewBox="0 0 29 29" fill="none" xmlns="http://www.w3.org/2000/svg">
<path d="M27.7934 19.0884L26.5001 19.7351L25.2067 19.0884C25.0909 19.0303 24.963 19.0001 24.8334 19.0001C24.7038 19.0001 24.576 19.0303 24.4601 19.0884L23.1667 19.7351L22.3334 19.3184V1.50005C22.3334 1.35795 22.2971 1.2182 22.2278 1.0941C22.1586 0.969997 22.0588 0.865661 21.9379 0.791006C21.8169 0.716351 21.6789 0.673858 21.537 0.667566C21.395 0.661273 21.2538 0.69139 21.1267 0.755054L19.8334 1.40172L18.5401 0.755054C18.4242 0.696984 18.2964 0.666748 18.1667 0.666748C18.0371 0.666748 17.9093 0.696984 17.7934 0.755054L16.5001 1.40172L15.2067 0.755054C15.0909 0.696984 14.963 0.666748 14.8334 0.666748C14.7038 0.666748 14.576 0.696984 14.4601 0.755054L13.1667 1.40172L11.8734 0.755054C11.7575 0.696984 11.6297 0.666748 11.5001 0.666748C11.3705 0.666748 11.2426 0.696984 11.1267 0.755054L9.83341 1.40172L8.54008 0.755054C8.4242 0.696984 8.29637 0.666748 8.16675 0.666748C8.03713 0.666748 7.9093 0.696984 7.79341 0.755054L6.50008 1.40172L5.20675 0.755054C5.09086 0.696984 4.96303 0.666748 4.83341 0.666748C4.7038 0.666748 4.57596 0.696984 4.46008 0.755054L3.16675 1.40172L1.87341 0.755054C1.74637 0.69139 1.60515 0.661273 1.46318 0.667566C1.32121 0.673858 1.18321 0.716351 1.0623 0.791006C0.941378 0.865661 0.841561 0.969997 0.772329 1.0941C0.703098 1.2182 0.666753 1.35795 0.666748 1.50005V24.8334C0.666748 25.9385 1.10573 26.9983 1.88714 27.7797C2.66854 28.5611 3.72835 29.0001 4.83341 29.0001H24.8334C25.9385 29.0001 26.9983 28.5611 27.7797 27.7797C28.5611 26.9983 29.0001 25.9385 29.0001 24.8334V19.8334C29.0001 19.6913 28.9637 19.5515 28.8945 19.4274C28.8253 19.3033 28.7254 19.199 28.6045 19.1243C28.4836 19.0497 28.3456 19.0072 28.2036 19.0009C28.0617 18.9946 27.9205 19.0247 27.7934 19.0884ZM11.5001 10.6667C11.4973 11.4036 11.2505 12.1187 10.7982 12.7004C10.3458 13.2821 9.71354 13.6975 9.00008 13.8817V21.5001C9.00008 21.7211 8.91228 21.933 8.756 22.0893C8.59972 22.2456 8.38776 22.3334 8.16675 22.3334C7.94573 22.3334 7.73377 22.2456 7.57749 22.0893C7.42121 21.933 7.33341 21.7211 7.33341 21.5001V13.8817C6.61996 13.6975 5.98765 13.2821 5.53533 12.7004C5.08301 12.1187 4.83618 11.4036 4.83341 10.6667V8.16672C4.83341 7.94571 4.92121 7.73374 5.07749 7.57746C5.23377 7.42118 5.44573 7.33339 5.66675 7.33339C5.88776 7.33339 6.09972 7.42118 6.256 7.57746C6.41228 7.73374 6.50008 7.94571 6.50008 8.16672V10.6667C6.5034 10.9541 6.58211 11.2356 6.72835 11.4831C6.87459 11.7305 7.08324 11.9352 7.33341 12.0767V8.16672C7.33341 7.94571 7.42121 7.73374 7.57749 7.57746C7.73377 7.42118 7.94573 7.33339 8.16675 7.33339C8.38776 7.33339 8.59972 7.42118 8.756 7.57746C8.91228 7.73374 9.00008 7.94571 9.00008 8.16672V12.0767C9.25026 11.9352 9.4589 11.7305 9.60514 11.4831C9.75139 11.2356 9.8301 10.9541 9.83341 10.6667V8.16672C9.83341 7.94571 9.92121 7.73374 10.0775 7.57746C10.2338 7.42118 10.4457 7.33339 10.6667 7.33339C10.8878 7.33339 11.0997 7.42118 11.256 7.57746C11.4123 7.73374 11.5001 7.94571 11.5001 8.16672V10.6667ZM17.2584 17.3784L14.8334 17.9851V21.5001C14.8334 21.7211 14.7456 21.933 14.5893 22.0893C14.4331 22.2456 14.2211 22.3334 14.0001 22.3334C13.7791 22.3334 13.5671 22.2456 13.4108 22.0893C13.2545 21.933 13.1667 21.7211 13.1667 21.5001V8.16672C13.1665 8.00169 13.2152 7.84028 13.3067 7.70296C13.3983 7.56565 13.5285 7.45861 13.681 7.39541C13.8334 7.33222 14.0012 7.31571 14.1631 7.34799C14.3249 7.38027 14.4735 7.45988 14.5901 7.57672C15.7277 8.7083 16.6296 10.0543 17.2435 11.5368C17.8575 13.0193 18.1713 14.6088 18.1667 16.2134C18.1673 16.4811 18.0781 16.7413 17.9134 16.9525C17.7488 17.1637 17.5182 17.3136 17.2584 17.3784ZM27.3334 24.8334C27.3334 25.4964 27.07 26.1323 26.6012 26.6012C26.1323 27.07 25.4965 27.3334 24.8334 27.3334C24.1704 27.3334 23.5345 27.07 23.0656 26.6012C22.5968 26.1323 22.3334 25.4964 22.3334 24.8334V21.1817L22.7934 21.4117C22.9093 21.4698 23.0371 21.5 23.1667 21.5C23.2964 21.5 23.4242 21.4698 23.5401 21.4117L24.8334 20.7651L26.1267 21.4117C26.2426 21.4698 26.3705 21.5 26.5001 21.5C26.6297 21.5 26.7575 21.4698 26.8734 21.4117L27.3334 21.1817V24.8334Z" fill="#A098AE"/>
</svg>
