<svg width="56" height="57" viewBox="0 0 56 57" fill="none" xmlns="http://www.w3.org/2000/svg">
<path d="M55.7084 25.4083H0.291748V24.2416C0.291748 13.7416 12.1334 1.95825 28.0001 1.95825C43.8668 1.95825 55.7084 13.7416 55.7084 24.2416V25.4083ZM2.68341 23.0749H53.3751C52.5001 13.9749 41.9417 4.23325 28.0001 4.23325C14.0584 4.23325 3.50008 13.9749 2.68341 23.0749Z" fill="#2E2E2E"/>
<path d="M9.09992 18.4666C12.3666 13.3332 19.5999 8.8999 27.9999 8.8999C36.3999 8.8999 43.5749 13.3332 46.8999 18.4666H9.09992ZM52.3249 53.8749H3.67492C2.44992 53.8749 1.45825 52.8832 1.45825 51.6582V44.1916H54.5416V51.6582C54.5416 52.8832 53.5499 53.8749 52.3249 53.8749Z" fill="#A6C44A"/>
<path d="M52.3251 55.0416H3.67508C1.80841 55.0416 0.291748 53.5249 0.291748 51.6582V43.0833H55.7084V51.7166C55.7084 53.5249 54.1917 55.0416 52.3251 55.0416ZM2.62508 45.3583V51.6582C2.62508 52.2416 3.09175 52.7082 3.67508 52.7082H52.3834C52.9668 52.7082 53.4334 52.2416 53.4334 51.6582V45.3583H2.62508Z" fill="#2E2E2E"/>
<path d="M49.5249 39.1749H6.47492C3.67492 39.1749 1.45825 36.8999 1.45825 34.1583C1.45825 31.3583 3.73325 29.1416 6.47492 29.1416H49.5249C52.3249 29.1416 54.5416 31.4166 54.5416 34.1583C54.5416 36.9583 52.3249 39.1749 49.5249 39.1749Z" fill="#F8B602"/>
<path d="M49.5251 40.3418H6.47508C3.03342 40.3418 0.291748 37.5418 0.291748 34.1584C0.291748 30.7751 3.09175 27.9751 6.47508 27.9751H49.5251C52.9668 27.9751 55.7084 30.7751 55.7084 34.1584C55.7084 37.5418 52.9084 40.3418 49.5251 40.3418ZM6.47508 30.2501C4.31675 30.2501 2.56675 32.0001 2.56675 34.1584C2.56675 36.3168 4.31675 38.0668 6.47508 38.0668H49.5251C51.6834 38.0668 53.4334 36.3168 53.4334 34.1584C53.4334 32.0001 51.6834 30.2501 49.5251 30.2501H6.47508Z" fill="#F8B602"/>
<path d="M30.7999 36.3166C29.6916 36.3166 28.6999 35.9082 27.7666 35.5582C27.0082 35.2666 26.3082 34.9749 25.6666 34.9749C24.9082 34.9166 24.0332 35.2082 23.1582 35.4416C21.8166 35.8499 20.2999 36.3166 18.7832 35.7916C18.3166 35.6166 17.9082 35.3832 17.5582 35.2082C17.3249 35.0916 17.0916 34.9166 16.8582 34.8582C15.7499 34.3916 14.4082 34.6832 12.9499 35.0332L12.5416 35.1499C10.8499 35.4999 8.3999 35.8499 6.6499 34.3332L8.16657 32.5832C8.9249 33.2249 10.1499 33.3415 12.0749 32.9332L12.4832 32.8166C14.1166 32.4666 15.9832 32.0582 17.7916 32.7582C18.1416 32.9332 18.4332 33.1082 18.7832 33.2249C19.0749 33.3999 19.3666 33.5749 19.5999 33.6332C20.4166 33.9249 21.4082 33.6332 22.5749 33.2832C23.6249 32.9916 24.6749 32.6416 25.8999 32.6999C26.9499 32.7582 27.8249 33.1082 28.6999 33.4582C29.6332 33.8082 30.5082 34.1582 31.2666 34.0416C31.5582 33.9832 31.9082 33.8666 32.3166 33.6916C32.4916 33.6332 32.6082 33.5749 32.7832 33.5165C34.5332 32.8165 36.5749 32.6416 38.4416 33.0499C38.7332 33.1082 39.0832 33.1666 39.3749 33.2832C39.9582 33.4582 40.5416 33.5749 41.0666 33.5749C41.8249 33.5749 42.6416 33.2249 43.4582 32.9332C43.8082 32.8165 44.1582 32.6416 44.5082 32.5249C46.4916 31.8249 48.2416 31.9999 49.4082 32.9916L47.8916 34.7416C47.1332 34.0999 45.7916 34.5082 45.2082 34.6832C44.9166 34.7999 44.5666 34.9166 44.2749 35.0332C43.2832 35.4416 42.2332 35.8499 41.0082 35.8499C41.0082 35.8499 41.0082 35.8499 40.9499 35.8499C40.1332 35.8499 39.3749 35.6749 38.6749 35.4999C38.3832 35.4416 38.1499 35.3832 37.8582 35.3249C36.3999 35.0332 34.8832 35.1499 33.5416 35.6749C33.4249 35.7332 33.2499 35.7916 33.1332 35.8499C32.6666 36.0249 32.1999 36.2582 31.6166 36.3166C31.3249 36.2582 31.0916 36.3166 30.7999 36.3166Z" fill="#2E2E2E"/>
<path d="M9.11775 19.0612L7.7644 17.1604L6.0062 18.4122L7.35955 20.313L9.11775 19.0612Z" fill="#2E2E2E"/>
<path d="M40.0946 11.8803L38.741 9.97974L36.9829 11.2318L38.3366 13.1324L40.0946 11.8803Z" fill="#2E2E2E"/>
<path d="M34.5035 9.53797L33.1501 7.63721L31.3919 8.88905L32.7453 10.7898L34.5035 9.53797Z" fill="#2E2E2E"/>
<path d="M13.4828 14.6626L11.9265 12.9241L10.8834 13.8578L12.4397 15.5964L13.4828 14.6626Z" fill="#2E2E2E"/>
<path d="M21.0214 10.9073L20.1235 8.75366L18.4544 9.4495L19.3523 11.6032L21.0214 10.9073Z" fill="#2E2E2E"/>
<path d="M15.4573 20.0792L14.4673 17.9663L13.2524 18.5356L14.2424 20.6485L15.4573 20.0792Z" fill="#2E2E2E"/>
<path d="M26.6583 9.7167L25.1999 7.90837C25.8999 7.32503 26.7749 6.9167 27.6499 6.7417L28.1749 8.95837C27.5916 9.13337 27.0666 9.3667 26.6583 9.7167ZM17.7916 16.5417L17.2083 14.325C17.7333 14.2084 18.2583 13.975 18.7249 13.7417L19.7749 15.7834C19.1333 16.075 18.4916 16.3084 17.7916 16.5417Z" fill="#2E2E2E"/>
<path d="M30.8663 19.6823L30.1248 17.47L28.1889 18.1188L28.9305 20.3312L30.8663 19.6823Z" fill="#2E2E2E"/>
<path d="M42.6122 20.4089L41.8706 18.1965L39.9348 18.8454L40.6764 21.0578L42.6122 20.4089Z" fill="#2E2E2E"/>
<path d="M35.6417 20.8583L34.7084 18.7583C35.2917 18.525 35.8751 18.2917 36.4584 18.175L36.9251 20.45C36.4584 20.5667 35.9917 20.6833 35.6417 20.8583ZM32.6667 16.3667L31.7334 14.2667C32.3167 14.0333 32.9001 13.8583 33.4834 13.6833L33.9501 15.9583C33.4834 16.0167 33.0751 16.1917 32.6667 16.3667Z" fill="#2E2E2E"/>
<path d="M26.9311 14.8917L26.187 12.6802L24.8601 13.1266L25.6042 15.3381L26.9311 14.8917Z" fill="#2E2E2E"/>
<path d="M16.0246 12.0403L15.2795 9.8291L13.9528 10.2762L14.6979 12.4873L16.0246 12.0403Z" fill="#2E2E2E"/>
<path d="M24.0144 20.508L23.2693 18.2969L21.9426 18.7439L22.6877 20.9551L24.0144 20.508Z" fill="#2E2E2E"/>
<path d="M48.1247 18.7559L47.3806 16.5444L46.0537 16.9909L46.7978 19.2024L48.1247 18.7559Z" fill="#2E2E2E"/>
<path d="M43.9296 16.2154L43.1855 14.0039L41.8586 14.4504L42.6027 16.6619L43.9296 16.2154Z" fill="#2E2E2E"/>
</svg>
