<svg width="60" height="60" viewBox="0 0 60 60" fill="none" xmlns="http://www.w3.org/2000/svg">
<rect width="60" height="60" rx="16" fill="white"/>
<circle cx="46" cy="14" r="4" fill="#F8B602"/>
<path d="M42.5001 26.6667H41.6667V22.5C41.6667 21.837 41.4034 21.2011 40.9345 20.7322C40.4657 20.2634 39.8298 20 39.1667 20H19.1667C18.5037 20 17.8678 20.2634 17.399 20.7322C16.9301 21.2011 16.6667 21.837 16.6667 22.5V35.8333C16.6667 36.4964 16.9301 37.1323 17.399 37.6011C17.8678 38.0699 18.5037 38.3333 19.1667 38.3333H20.0001V39.8333C20.0008 40.0802 20.0744 40.3213 20.2118 40.5264C20.3492 40.7315 20.5441 40.8914 20.7721 40.986C21.0001 41.0806 21.251 41.1057 21.4933 41.058C21.7355 41.0104 21.9582 40.8922 22.1334 40.7183L24.5117 38.3333H26.6667V39.1667C26.6667 39.8297 26.9301 40.4656 27.399 40.9344C27.8678 41.4033 28.5037 41.6667 29.1667 41.6667H37.1551L39.5334 44.045C39.7079 44.2193 39.9301 44.3381 40.172 44.3864C40.4138 44.4347 40.6646 44.4103 40.8927 44.3164C41.1207 44.2225 41.3159 44.0633 41.4537 43.8587C41.5914 43.6541 41.6655 43.4133 41.6667 43.1667V41.6667H42.5001C43.1631 41.6667 43.799 41.4033 44.2678 40.9344C44.7367 40.4656 45.0001 39.8297 45.0001 39.1667V29.1667C45.0001 28.5036 44.7367 27.8677 44.2678 27.3989C43.799 26.9301 43.1631 26.6667 42.5001 26.6667ZM40.0001 35.8333C40.0001 36.0543 39.9123 36.2663 39.756 36.4226C39.5997 36.5789 39.3878 36.6667 39.1667 36.6667H24.1667C24.0572 36.6665 23.9488 36.6879 23.8475 36.7296C23.7463 36.7714 23.6543 36.8327 23.5767 36.91L21.6667 38.8217V37.5C21.6667 37.279 21.579 37.067 21.4227 36.9107C21.2664 36.7545 21.0544 36.6667 20.8334 36.6667H19.1667C18.9457 36.6667 18.7338 36.5789 18.5775 36.4226C18.4212 36.2663 18.3334 36.0543 18.3334 35.8333V22.5C18.3334 22.279 18.4212 22.067 18.5775 21.9107C18.7338 21.7545 18.9457 21.6667 19.1667 21.6667H39.1667C39.3878 21.6667 39.5997 21.7545 39.756 21.9107C39.9123 22.067 40.0001 22.279 40.0001 22.5V35.8333Z" fill="#2E2E2E"/>
<path d="M28.3333 24.1667C28.1123 24.1667 27.9004 24.2545 27.7441 24.4108C27.5878 24.5671 27.5 24.7791 27.5 25.0001V26.6667C27.4964 26.9541 27.4175 27.2355 27.2713 27.4828C27.1251 27.7302 26.9166 27.935 26.6667 28.0767V25.0001C26.6667 24.7791 26.5789 24.5671 26.4226 24.4108C26.2663 24.2545 26.0543 24.1667 25.8333 24.1667C25.6123 24.1667 25.4004 24.2545 25.2441 24.4108C25.0878 24.5671 25 24.7791 25 25.0001V28.0767C24.75 27.935 24.5416 27.7302 24.3954 27.4828C24.2492 27.2355 24.1703 26.9541 24.1667 26.6667V25.0001C24.1667 24.7791 24.0789 24.5671 23.9226 24.4108C23.7663 24.2545 23.5543 24.1667 23.3333 24.1667C23.1123 24.1667 22.9004 24.2545 22.7441 24.4108C22.5878 24.5671 22.5 24.7791 22.5 25.0001V26.6667C22.5028 27.4036 22.7496 28.1188 23.2019 28.7004C23.6542 29.2821 24.2865 29.6975 25 29.8817V33.3334C25 33.5544 25.0878 33.7664 25.2441 33.9227C25.4004 34.079 25.6123 34.1667 25.8333 34.1667C26.0543 34.1667 26.2663 34.079 26.4226 33.9227C26.5789 33.7664 26.6667 33.5544 26.6667 33.3334V29.8817C27.3801 29.6975 28.0124 29.2821 28.4648 28.7004C28.9171 28.1188 29.1639 27.4036 29.1667 26.6667V25.0001C29.1667 24.7791 29.0789 24.5671 28.9226 24.4108C28.7663 24.2545 28.5543 24.1667 28.3333 24.1667ZM32.04 24.2551C31.913 24.1914 31.7717 24.1613 31.6298 24.1676C31.4878 24.1739 31.3498 24.2164 31.2289 24.291C31.108 24.3657 31.0081 24.47 30.9389 24.5941C30.8697 24.7182 30.8333 24.858 30.8333 25.0001V33.3334C30.8333 33.5544 30.9211 33.7664 31.0774 33.9227C31.2337 34.079 31.4457 34.1667 31.6667 34.1667C31.8877 34.1667 32.0996 34.079 32.2559 33.9227C32.4122 33.7664 32.5 33.5544 32.5 33.3334V32.3184L34.8867 31.7201C35.1746 31.642 35.4264 31.4664 35.5991 31.2231C35.7717 30.9799 35.8545 30.6843 35.8333 30.3867C35.8355 29.1127 35.4815 27.8634 34.8112 26.7799C34.1409 25.6964 33.181 24.8219 32.04 24.2551Z" fill="#2E2E2E"/>
</svg>
