<svg width="41" height="40" viewBox="0 0 41 40" fill="none" xmlns="http://www.w3.org/2000/svg">
<rect x="0.5" width="40" height="40" rx="12" fill="#F8B602"/>
<path d="M31.4333 14.6267C31.0489 14.5483 30.6961 14.3586 30.4187 14.0812C30.1413 13.8038 29.9516 13.451 29.8733 13.0667C29.8118 12.7655 29.6481 12.4948 29.41 12.3005C29.1719 12.1061 28.874 11.9999 28.5666 12H16.4999V13.3333C16.4999 13.5101 16.4297 13.6797 16.3047 13.8047C16.1796 13.9298 16.0101 14 15.8333 14C15.6564 14 15.4869 13.9298 15.3618 13.8047C15.2368 13.6797 15.1666 13.5101 15.1666 13.3333V12H13.7666C13.4592 11.9999 13.1613 12.1061 12.9231 12.3005C12.685 12.4948 12.5214 12.7655 12.4599 13.0667C12.3815 13.451 12.1918 13.8038 11.9145 14.0812C11.6371 14.3586 11.2843 14.5483 10.8999 14.6267C10.5988 14.6881 10.3281 14.8518 10.1337 15.0899C9.93933 15.328 9.83319 15.626 9.83325 15.9333V25.4C9.83319 25.7074 9.93933 26.0053 10.1337 26.2434C10.3281 26.4816 10.5988 26.6452 10.8999 26.7067C11.2843 26.7851 11.6371 26.9747 11.9145 27.2521C12.1918 27.5295 12.3815 27.8823 12.4599 28.2667C12.5214 28.5678 12.685 28.8385 12.9231 29.0329C13.1613 29.2273 13.4592 29.3334 13.7666 29.3333H15.1666V28C15.1666 27.8232 15.2368 27.6536 15.3618 27.5286C15.4869 27.4036 15.6564 27.3333 15.8333 27.3333C16.0101 27.3333 16.1796 27.4036 16.3047 27.5286C16.4297 27.6536 16.4999 27.8232 16.4999 28V29.3333H28.5666C28.874 29.3334 29.1719 29.2273 29.41 29.0329C29.6481 28.8385 29.8118 28.5678 29.8733 28.2667C29.9516 27.8823 30.1413 27.5295 30.4187 27.2521C30.6961 26.9747 31.0489 26.7851 31.4333 26.7067C31.7344 26.6452 32.0051 26.4816 32.1995 26.2434C32.3938 26.0053 32.5 25.7074 32.4999 25.4V15.9333C32.5 15.626 32.3938 15.328 32.1995 15.0899C32.0051 14.8518 31.7344 14.6881 31.4333 14.6267ZM16.4999 25.4333C16.4999 25.6101 16.4297 25.7797 16.3047 25.9047C16.1796 26.0298 16.0101 26.1 15.8333 26.1C15.6564 26.1 15.4869 26.0298 15.3618 25.9047C15.2368 25.7797 15.1666 25.6101 15.1666 25.4333V23.9667C15.1666 23.7899 15.2368 23.6203 15.3618 23.4953C15.4869 23.3702 15.6564 23.3 15.8333 23.3C16.0101 23.3 16.1796 23.3702 16.3047 23.4953C16.4297 23.6203 16.4999 23.7899 16.4999 23.9667V25.4333ZM16.4999 21.4C16.4999 21.5768 16.4297 21.7464 16.3047 21.8714C16.1796 21.9964 16.0101 22.0667 15.8333 22.0667C15.6564 22.0667 15.4869 21.9964 15.3618 21.8714C15.2368 21.7464 15.1666 21.5768 15.1666 21.4V19.9333C15.1666 19.7565 15.2368 19.587 15.3618 19.4619C15.4869 19.3369 15.6564 19.2667 15.8333 19.2667C16.0101 19.2667 16.1796 19.3369 16.3047 19.4619C16.4297 19.587 16.4999 19.7565 16.4999 19.9333V21.4ZM16.4999 17.3653C16.4999 17.5421 16.4297 17.7117 16.3047 17.8367C16.1796 17.9618 16.0101 18.032 15.8333 18.032C15.6564 18.032 15.4869 17.9618 15.3618 17.8367C15.2368 17.7117 15.1666 17.5421 15.1666 17.3653V15.8987C15.1666 15.7219 15.2368 15.5523 15.3618 15.4273C15.4869 15.3022 15.6564 15.232 15.8333 15.232C16.0101 15.232 16.1796 15.3022 16.3047 15.4273C16.4297 15.5523 16.4999 15.7219 16.4999 15.8987V17.3653ZM23.8333 18C23.831 18.5895 23.6336 19.1616 23.2717 19.627C22.9099 20.0923 22.404 20.4246 21.8333 20.572V25.3333C21.8333 25.5101 21.763 25.6797 21.638 25.8047C21.513 25.9298 21.3434 26 21.1666 26C20.9898 26 20.8202 25.9298 20.6952 25.8047C20.5702 25.6797 20.4999 25.5101 20.4999 25.3333V20.572C19.9292 20.4246 19.4233 20.0923 19.0615 19.627C18.6996 19.1616 18.5021 18.5895 18.4999 18V16C18.4999 15.8232 18.5702 15.6536 18.6952 15.5286C18.8202 15.4036 18.9898 15.3333 19.1666 15.3333C19.3434 15.3333 19.513 15.4036 19.638 15.5286C19.763 15.6536 19.8333 15.8232 19.8333 16V18C19.8359 18.2299 19.8989 18.4551 20.0159 18.6531C20.1329 18.851 20.2998 19.0148 20.4999 19.128V16C20.4999 15.8232 20.5702 15.6536 20.6952 15.5286C20.8202 15.4036 20.9898 15.3333 21.1666 15.3333C21.3434 15.3333 21.513 15.4036 21.638 15.5286C21.763 15.6536 21.8333 15.8232 21.8333 16V19.128C22.0334 19.0148 22.2003 18.851 22.3173 18.6531C22.4343 18.4551 22.4973 18.2299 22.4999 18V16C22.4999 15.8232 22.5702 15.6536 22.6952 15.5286C22.8202 15.4036 22.9898 15.3333 23.1666 15.3333C23.3434 15.3333 23.513 15.4036 23.638 15.5286C23.763 15.6536 23.8333 15.8232 23.8333 16V18ZM28.4159 22.7867L26.4999 23.7453V25.3333C26.4999 25.5101 26.4297 25.6797 26.3047 25.8047C26.1796 25.9298 26.0101 26 25.8333 26C25.6564 26 25.4869 25.9298 25.3618 25.8047C25.2368 25.6797 25.1666 25.5101 25.1666 25.3333V16C25.1663 15.868 25.2053 15.7388 25.2786 15.629C25.3518 15.5191 25.456 15.4335 25.578 15.383C25.6999 15.3324 25.8342 15.3192 25.9636 15.345C26.0931 15.3708 26.212 15.4345 26.3053 15.528C27.9808 17.0914 28.9989 19.2336 29.1532 21.52C29.1675 21.7801 29.1053 22.0386 28.9742 22.2637C28.8432 22.4888 28.6491 22.6706 28.4159 22.7867Z" fill="white"/>
</svg>
