<svg width="29" height="25" viewBox="0 0 29 25" fill="none" xmlns="http://www.w3.org/2000/svg">
<path d="M24.8334 0H4.83341C3.72835 0 2.66854 0.438987 1.88714 1.22039C1.10573 2.00179 0.666748 3.0616 0.666748 4.16667V17.5C0.666748 18.6051 1.10573 19.6649 1.88714 20.4463C2.66854 21.2277 3.72835 21.6667 4.83341 21.6667H7.33341V23.3883C7.33343 23.6146 7.39485 23.8366 7.51111 24.0306C7.62738 24.2247 7.79414 24.3836 7.99361 24.4903C8.19308 24.5971 8.41778 24.6477 8.64375 24.6368C8.86973 24.6259 9.0885 24.5538 9.27675 24.4283L13.4184 21.6667H24.8334C25.9385 21.6667 26.9983 21.2277 27.7797 20.4463C28.5611 19.6649 29.0001 18.6051 29.0001 17.5V4.16667C29.0001 3.0616 28.5611 2.00179 27.7797 1.22039C26.9983 0.438987 25.9385 0 24.8334 0ZM15.8334 10.5467L14.3117 12.2717L14.5267 14.565C14.5468 14.7804 14.5108 14.9972 14.4221 15.1945C14.3334 15.3918 14.1951 15.5627 14.0207 15.6906C13.8463 15.8185 13.6417 15.8991 13.4269 15.9244C13.2121 15.9497 12.9944 15.9189 12.7951 15.835L10.6667 14.915L8.55341 15.8333C8.35442 15.919 8.13659 15.9515 7.92125 15.9278C7.70591 15.904 7.50042 15.8247 7.32489 15.6978C7.14936 15.5708 7.00979 15.4004 6.91985 15.2033C6.8299 15.0062 6.79265 14.7891 6.81175 14.5733L7.02841 12.275L5.50008 10.5467C5.3569 10.3834 5.25864 10.1858 5.21495 9.97311C5.17126 9.76042 5.18365 9.54003 5.25089 9.33359C5.31814 9.12714 5.43793 8.94174 5.5985 8.79559C5.75907 8.64944 5.9549 8.54758 6.16675 8.5L8.41508 8L9.58175 6.01667C9.70194 5.84272 9.86255 5.70053 10.0498 5.60232C10.237 5.50411 10.4453 5.4528 10.6567 5.4528C10.8682 5.4528 11.0765 5.50411 11.2637 5.60232C11.4509 5.70053 11.6116 5.84272 11.7317 6.01667L12.8984 8.00333L15.1451 8.50333C15.3578 8.54874 15.5551 8.64874 15.7175 8.7935C15.8799 8.93826 16.0018 9.12279 16.0712 9.32895C16.1407 9.53511 16.1553 9.75579 16.1136 9.9693C16.0719 10.1828 15.9753 10.3818 15.8334 10.5467ZM21.5001 15H18.1667C17.9457 15 17.7338 14.9122 17.5775 14.7559C17.4212 14.5996 17.3334 14.3877 17.3334 14.1667C17.3334 13.9457 17.4212 13.7337 17.5775 13.5774C17.7338 13.4211 17.9457 13.3333 18.1667 13.3333H21.5001C21.7211 13.3333 21.9331 13.4211 22.0893 13.5774C22.2456 13.7337 22.3334 13.9457 22.3334 14.1667C22.3334 14.3877 22.2456 14.5996 22.0893 14.7559C21.9331 14.9122 21.7211 15 21.5001 15ZM24.0001 11.6667H18.1667C17.9457 11.6667 17.7338 11.5789 17.5775 11.4226C17.4212 11.2663 17.3334 11.0543 17.3334 10.8333C17.3334 10.6123 17.4212 10.4004 17.5775 10.2441C17.7338 10.0878 17.9457 10 18.1667 10H24.0001C24.2211 10 24.4331 10.0878 24.5893 10.2441C24.7456 10.4004 24.8334 10.6123 24.8334 10.8333C24.8334 11.0543 24.7456 11.2663 24.5893 11.4226C24.4331 11.5789 24.2211 11.6667 24.0001 11.6667ZM24.0001 8.33333H18.1667C17.9457 8.33333 17.7338 8.24554 17.5775 8.08926C17.4212 7.93298 17.3334 7.72101 17.3334 7.5C17.3334 7.27899 17.4212 7.06702 17.5775 6.91074C17.7338 6.75446 17.9457 6.66667 18.1667 6.66667H24.0001C24.2211 6.66667 24.4331 6.75446 24.5893 6.91074C24.7456 7.06702 24.8334 7.27899 24.8334 7.5C24.8334 7.72101 24.7456 7.93298 24.5893 8.08926C24.4331 8.24554 24.2211 8.33333 24.0001 8.33333Z" fill="#A098AE"/>
</svg>
