<svg width="29" height="24" viewBox="0 0 29 24" fill="none" xmlns="http://www.w3.org/2000/svg">
<path d="M0.666748 18.1667C0.666748 18.8298 0.93014 19.4657 1.39898 19.9345C1.86782 20.4034 2.50371 20.6667 3.16675 20.6667H4.08508C4.27634 21.6087 4.78736 22.4555 5.53153 23.0637C6.27571 23.672 7.20729 24.0043 8.16842 24.0043C9.12955 24.0043 10.0611 23.672 10.8053 23.0637C11.5495 22.4555 12.0605 21.6087 12.2517 20.6667H17.5001C18.631 20.6588 19.735 20.3211 20.6767 19.6951C20.6767 19.7417 20.6634 19.7867 20.6634 19.8334C20.6628 20.73 20.9515 21.6029 21.4865 22.3223C22.0214 23.0418 22.7742 23.5696 23.633 23.8271C24.4918 24.0847 25.4108 24.0584 26.2534 23.7521C27.0961 23.4459 27.8175 22.8759 28.3104 22.127C28.8034 21.3781 29.0416 20.4902 28.9898 19.5951C28.9379 18.7 28.5987 17.8455 28.0225 17.1586C27.4464 16.4716 26.664 15.9888 25.7916 15.7819C24.9192 15.575 24.0034 15.655 23.1801 16.0101C23.3207 15.387 23.3567 14.745 23.2867 14.1101L22.6417 8.94341C22.8142 8.98115 22.9902 9.00015 23.1667 9.00008H24.0001C24.4421 9.00008 24.866 8.82449 25.1786 8.51193C25.4912 8.19937 25.6667 7.77544 25.6667 7.33342V5.66675C25.6667 5.22472 25.4912 4.8008 25.1786 4.48824C24.866 4.17568 24.4421 4.00008 24.0001 4.00008H23.1667C22.7806 4.00189 22.4001 4.09311 22.0552 4.26661C21.7102 4.44011 21.4101 4.69116 21.1784 5.00008L20.9101 4.73175C20.4403 4.26508 19.8056 4.00222 19.1434 4.00008H18.1667C17.9457 4.00008 17.7338 4.08788 17.5775 4.24416C17.4212 4.40044 17.3334 4.6124 17.3334 4.83342C17.3334 5.05443 17.4212 5.26639 17.5775 5.42267C17.7338 5.57895 17.9457 5.66675 18.1667 5.66675H19.1434C19.364 5.6668 19.5756 5.7543 19.7317 5.91008L20.7051 6.88341C20.7301 7.03841 21.3284 11.8467 21.6367 14.3167C21.71 14.9032 21.6577 15.4985 21.4833 16.0631C21.3089 16.6278 21.0164 17.1489 20.6251 17.5918C20.2339 18.0347 19.7529 18.3894 19.2141 18.6322C18.6753 18.875 18.0911 19.0004 17.5001 19.0001H17.1834L15.6667 11.4184V9.83342C15.6667 9.17037 15.4034 8.53449 14.9345 8.06565C14.4657 7.59681 13.8298 7.33342 13.1667 7.33342H9.83341V3.16675C9.83341 2.50371 9.57002 1.86782 9.10118 1.39898C8.63234 0.93014 7.99646 0.666748 7.33341 0.666748H3.16675C2.50371 0.666748 1.86782 0.93014 1.39898 1.39898C0.93014 1.86782 0.666748 2.50371 0.666748 3.16675V9.83342C0.666748 10.4965 0.93014 11.1323 1.39898 11.6012C1.86782 12.07 2.50371 12.3334 3.16675 12.3334H3.51008C2.62741 13.0288 1.91324 13.9146 1.42089 14.9247C0.928548 15.9348 0.67075 17.0431 0.666748 18.1667ZM24.8334 17.3334C25.3279 17.3334 25.8112 17.48 26.2223 17.7547C26.6335 18.0294 26.9539 18.4199 27.1431 18.8767C27.3323 19.3335 27.3818 19.8362 27.2854 20.3211C27.1889 20.8061 26.9508 21.2516 26.6012 21.6012C26.2515 21.9508 25.8061 22.1889 25.3211 22.2854C24.8362 22.3818 24.3335 22.3323 23.8767 22.1431C23.4199 21.9539 23.0294 21.6335 22.7547 21.2223C22.48 20.8112 22.3334 20.3279 22.3334 19.8334C22.3334 19.1704 22.5968 18.5345 23.0656 18.0656C23.5345 17.5968 24.1704 17.3334 24.8334 17.3334ZM9.83341 9.00008H13.1667C13.3878 9.00008 13.5997 9.08788 13.756 9.24416C13.9123 9.40044 14.0001 9.6124 14.0001 9.83342V10.6667H9.83341V9.00008ZM10.5134 20.6667C10.3437 21.1539 10.0266 21.5761 9.60613 21.8749C9.18563 22.1737 8.68258 22.3342 8.16675 22.3342C7.65091 22.3342 7.14786 22.1737 6.72737 21.8749C6.30688 21.5761 5.98979 21.1539 5.82008 20.6667H10.5134ZM2.33341 3.16675C2.33341 2.94573 2.42121 2.73377 2.57749 2.57749C2.73377 2.42121 2.94573 2.33341 3.16675 2.33341H7.33341C7.55443 2.33341 7.76639 2.42121 7.92267 2.57749C8.07895 2.73377 8.16675 2.94573 8.16675 3.16675V4.00008H2.33341V3.16675ZM2.33341 5.66675H8.16675V7.30841H2.33341V5.66675ZM3.16675 10.6667C2.94573 10.6667 2.73377 10.579 2.57749 10.4227C2.42121 10.2664 2.33341 10.0544 2.33341 9.83342V8.97508H8.16675V10.6667H3.16675Z" fill="#A098AE"/>
</svg>
