<svg width="60" height="60" viewBox="0 0 60 60" fill="none" xmlns="http://www.w3.org/2000/svg">
<rect width="60" height="60" rx="16" fill="white"/>
<path d="M40.55 32.9624C40.3745 32.8539 40.231 32.7006 40.1344 32.5182C40.0377 32.3359 39.9913 32.1311 40 31.9249V27.8624C40.0077 25.824 39.4205 23.8275 38.3104 22.1179C37.2002 20.4082 35.6153 19.0596 33.75 18.2374C33.6136 17.3523 33.1649 16.5452 32.4851 15.9622C31.8053 15.3791 30.9393 15.0586 30.0437 15.0586C29.1482 15.0586 28.2821 15.3791 27.6024 15.9622C26.9226 16.5452 26.4739 17.3523 26.3375 18.2374C25.1223 18.7215 24.0139 19.4392 23.075 20.3499C22.106 21.2722 21.3339 22.3812 20.8054 23.6101C20.2769 24.839 20.0029 26.1622 20 27.4999V31.9249C20.0086 32.1311 19.9623 32.3359 19.8656 32.5182C19.769 32.7006 19.6255 32.8539 19.45 32.9624C18.7567 33.3288 18.1957 33.9033 17.8459 34.6052C17.4961 35.307 17.3751 36.1008 17.5 36.8749C17.674 37.7713 18.16 38.577 18.8717 39.1491C19.5834 39.7211 20.4747 40.0226 21.3875 39.9999H25C25 41.326 25.5268 42.5978 26.4644 43.5355C27.4021 44.4732 28.6739 44.9999 30 44.9999C31.3261 44.9999 32.5978 44.4732 33.5355 43.5355C34.4732 42.5978 35 41.326 35 39.9999H38.6125C39.5253 40.0226 40.4166 39.7211 41.1283 39.1491C41.8399 38.577 42.3259 37.7713 42.5 36.8749C42.6248 36.1008 42.5038 35.307 42.1541 34.6052C41.8043 33.9033 41.2433 33.3288 40.55 32.9624ZM30 42.4999C29.3369 42.4999 28.7011 42.2366 28.2322 41.7677C27.7634 41.2989 27.5 40.663 27.5 39.9999H32.5C32.5 40.663 32.2366 41.2989 31.7677 41.7677C31.2989 42.2366 30.663 42.4999 30 42.4999ZM38.6125 37.4999H21.3875C21.0735 37.5154 20.7637 37.4218 20.5109 37.235C20.258 37.0482 20.0775 36.7796 20 36.4749C19.9526 36.2151 19.9888 35.9468 20.1033 35.7088C20.2178 35.4707 20.4048 35.2751 20.6375 35.1499C21.208 34.8281 21.6817 34.3591 22.0092 33.7918C22.3368 33.2246 22.5063 32.5799 22.5 31.9249V27.4999C22.499 26.4953 22.6999 25.5008 23.0907 24.5753C23.4815 23.6498 24.0543 22.8123 24.775 22.1124C25.3669 21.5333 26.0567 21.0635 26.8125 20.7249C27.8067 20.2458 28.8964 19.998 30 19.9999H30.2375C31.2592 20.0355 32.2612 20.2914 33.175 20.7499C34.4819 21.4211 35.5776 22.4407 36.3409 23.696C37.1043 24.9513 37.5054 26.3933 37.5 27.8624V31.9249C37.4924 32.5787 37.66 33.2225 37.9853 33.7896C38.3107 34.3568 38.7818 34.8264 39.35 35.1499C39.5826 35.2725 39.7706 35.4654 39.8873 35.701C40.004 35.9367 40.0435 36.2031 40 36.4624C39.9249 36.7695 39.7455 37.0409 39.4924 37.2301C39.2393 37.4194 38.9282 37.5148 38.6125 37.4999Z" fill="#2E2E2E"/>
<circle cx="46" cy="14" r="4" fill="#F8B602"/>
</svg>
