<svg width="24" height="20" viewBox="0 0 24 20" fill="none" xmlns="http://www.w3.org/2000/svg">
<path d="M23.4566 5.6688C23.1566 4.26255 22.6691 3.10005 21.8066 2.1813C20.5879 0.831299 18.9941 0.175049 17.1004 0.175049H16.8566C14.8504 0.231299 13.2004 1.03755 12.0379 2.50005C11.6066 2.01255 11.0629 1.52505 10.4441 1.15005C9.22539 0.418799 7.81914 0.118799 6.22539 0.231299C4.46289 0.418799 3.05664 1.2063 2.00664 2.50005C0.900394 3.96255 0.356644 5.61255 0.412894 7.3188C0.469144 8.91255 0.956645 10.375 1.87539 11.7813C2.90664 13.375 4.20039 14.5938 5.36289 15.5688C7.01289 17.0313 8.90664 18.325 11.2879 19.6563C11.5316 19.7875 11.7191 19.8438 11.9629 19.8438C12.2066 19.8438 12.3941 19.7875 12.6379 19.6563C14.7191 18.4938 16.5379 17.275 18.1879 15.8688C19.8941 14.4625 21.1129 13.1125 22.0879 11.65C23.4004 9.7563 23.8129 7.8063 23.4566 5.6688Z" fill="#DBDBDB"/>
</svg>
