<svg width="30" height="32" viewBox="0 0 30 32" fill="none" xmlns="http://www.w3.org/2000/svg">
<path d="M19.6438 22.3562L19.5688 19.7C20.1313 19.5937 20.9188 18.6437 21.2375 18.1375L20.1625 15.725C19.5688 15.6313 18.3375 15.575 17.8813 15.925L15.9563 14.0938C16.275 13.625 16.1625 12.4 16.025 11.8188L13.5563 10.875C13.075 11.2187 12.1688 12.0563 12.0938 12.625L9.43755 12.6937C9.3313 12.1312 8.37505 11.3562 7.87505 11.0312L5.46255 12.1062C5.3688 12.7 5.31255 13.9313 5.66255 14.3875L3.83755 16.3125C3.36255 15.9937 2.13755 16.1125 1.5563 16.2437L0.612549 18.7063C0.956299 19.2 1.7938 20.0938 2.3563 20.175L2.4313 22.8312C1.87505 22.9438 1.0938 23.8875 0.768799 24.3937L1.85005 26.8062C2.43755 26.9 3.6688 26.95 4.12505 26.6125L6.05005 28.4312C5.7313 28.9 5.85005 30.1313 5.9813 30.7125L8.4438 31.6562C8.9313 31.3062 9.83755 30.4688 9.91255 29.9062L12.5688 29.8312C12.6813 30.4 13.625 31.175 14.1375 31.4937L16.5438 30.425C16.6438 29.825 16.6875 28.6 16.35 28.1437L18.1688 26.2125C18.6438 26.5375 19.8688 26.4187 20.4563 26.2875L21.3938 23.8187C21.0438 23.3375 20.2125 22.4375 19.6438 22.3562ZM13.8188 22.3375C13.6062 22.895 13.233 23.3769 12.7465 23.7224C12.26 24.0678 11.682 24.2612 11.0855 24.2781C10.4891 24.295 9.90106 24.1347 9.39575 23.8174C8.89043 23.5001 8.49056 23.0401 8.24669 22.4955C8.00281 21.951 7.9259 21.3463 8.02567 20.7581C8.12544 20.1698 8.39742 19.6243 8.8072 19.1906C9.21698 18.7569 9.74617 18.4545 10.3278 18.3215C10.9095 18.1886 11.5175 18.2311 12.075 18.4437C12.4456 18.5844 12.7847 18.7969 13.0729 19.0689C13.3612 19.3408 13.593 19.667 13.755 20.0288C13.917 20.3905 14.006 20.7806 14.0169 21.1768C14.0279 21.5729 13.9606 21.9674 13.8188 22.3375ZM29.375 5.1625C29.0813 4.91875 28.3875 4.4875 28.0438 4.6L26.9875 2.8C27.25 2.55625 27.2125 1.7375 27.1438 1.36875L25.3375 0.34375C24.9813 0.475 24.2626 0.8625 24.1875 1.2125L22.1 1.23125C22.0188 0.88125 21.2938 0.50625 20.9375 0.375L19.15 1.43125C19.0875 1.8 19.0625 2.61875 19.325 2.8625L18.3 4.675C17.95 4.56875 17.2625 5.0125 16.975 5.25625L16.9938 7.33125C17.2875 7.575 17.9813 8 18.325 7.89375L19.3813 9.69375C19.1188 9.9375 19.1563 10.7563 19.225 11.125L21.0313 12.15C21.3813 12.0187 22.1 11.6313 22.1813 11.2812L24.2625 11.2625C24.35 11.6125 25.075 11.9875 25.4313 12.1187L27.2188 11.0625C27.2813 10.6875 27.3063 9.875 27.0375 9.63125L28.0688 7.81875C28.4125 7.91875 29.1 7.48125 29.3876 7.2375L29.375 5.1625ZM23.1813 7.88125C22.8583 7.88063 22.5428 7.78433 22.2745 7.60451C22.0062 7.42468 21.7972 7.1694 21.6739 6.87088C21.5506 6.57237 21.5184 6.24401 21.5816 5.92726C21.6448 5.61051 21.8004 5.31958 22.0288 5.0912C22.2571 4.86282 22.5481 4.70722 22.8648 4.64406C23.1816 4.5809 23.5099 4.613 23.8084 4.73631C24.1069 4.85963 24.3622 5.06863 24.5421 5.33692C24.7219 5.60521 24.8182 5.92077 24.8188 6.24375C24.8193 6.45893 24.7773 6.67209 24.6952 6.87098C24.613 7.06987 24.4924 7.25059 24.3403 7.40274C24.1881 7.55489 24.0074 7.67549 23.8085 7.75761C23.6096 7.83973 23.3965 7.88174 23.1813 7.88125Z" fill="#A098AE"/>
</svg>
