<svg width="26" height="29" viewBox="0 0 26 29" fill="none" xmlns="http://www.w3.org/2000/svg">
<path d="M0.333252 24.8333C0.333252 27.6966 6.81325 28.9999 12.8333 28.9999C18.8533 28.9999 25.3333 27.6966 25.3333 24.8333C25.3333 22.5599 21.3983 21.5333 18.5633 21.0899L20.4999 19.1666C22.0151 17.6516 23.0469 15.7212 23.465 13.6198C23.8831 11.5183 23.6686 9.34 22.8487 7.36041C22.0288 5.38083 20.6402 3.68884 18.8587 2.49842C17.0771 1.30799 14.9826 0.672607 12.8399 0.672607C10.6972 0.672607 8.6027 1.30799 6.82115 2.49842C5.03959 3.68884 3.65106 5.38083 2.83114 7.36041C2.01121 9.34 1.79673 11.5183 2.21481 13.6198C2.63289 15.7212 3.66476 17.6516 5.17992 19.1666L7.10992 21.0966C4.26825 21.5333 0.333252 22.5599 0.333252 24.8333ZM14.4999 7.33325C14.4999 7.17849 14.543 7.02679 14.6244 6.89514C14.7057 6.7635 14.8222 6.65711 14.9606 6.5879C15.099 6.51869 15.254 6.48939 15.4081 6.50329C15.5622 6.51719 15.7094 6.57373 15.8333 6.66659C16.8652 7.44081 17.7221 8.42414 18.3479 9.55227C18.9737 10.6804 19.3543 11.9279 19.4649 13.2133C19.5015 13.6081 19.3951 14.003 19.1651 14.326C18.9351 14.649 18.5967 14.8787 18.2116 14.9733L16.1666 15.4849V17.3333C16.1666 17.5543 16.0788 17.7662 15.9225 17.9225C15.7662 18.0788 15.5543 18.1666 15.3333 18.1666C15.1122 18.1666 14.9003 18.0788 14.744 17.9225C14.5877 17.7662 14.4999 17.5543 14.4999 17.3333V7.33325ZM6.99992 8.99992V7.33325C6.99992 7.11224 7.08772 6.90028 7.244 6.744C7.40028 6.58772 7.61224 6.49992 7.83325 6.49992C8.05427 6.49992 8.26623 6.58772 8.42251 6.744C8.57879 6.90028 8.66658 7.11224 8.66658 7.33325V8.99992C8.6699 9.28733 8.74861 9.56883 8.89485 9.81627C9.0411 10.0637 9.24974 10.2684 9.49992 10.4099V7.33325C9.49992 7.11224 9.58772 6.90028 9.744 6.744C9.90028 6.58772 10.1122 6.49992 10.3333 6.49992C10.5543 6.49992 10.7662 6.58772 10.9225 6.744C11.0788 6.90028 11.1666 7.11224 11.1666 7.33325V10.4099C11.4168 10.2684 11.6254 10.0637 11.7716 9.81627C11.9179 9.56883 11.9966 9.28733 11.9999 8.99992V7.33325C11.9999 7.11224 12.0877 6.90028 12.244 6.744C12.4003 6.58772 12.6122 6.49992 12.8333 6.49992C13.0543 6.49992 13.2662 6.58772 13.4225 6.744C13.5788 6.90028 13.6666 7.11224 13.6666 7.33325V8.99992C13.6638 9.73677 13.417 10.4519 12.9647 11.0336C12.5124 11.6153 11.88 12.0307 11.1666 12.2149V17.3333C11.1666 17.5543 11.0788 17.7662 10.9225 17.9225C10.7662 18.0788 10.5543 18.1666 10.3333 18.1666C10.1122 18.1666 9.90028 18.0788 9.744 17.9225C9.58772 17.7662 9.49992 17.5543 9.49992 17.3333V12.2149C8.78646 12.0307 8.15415 11.6153 7.70183 11.0336C7.24951 10.4519 7.00268 9.73677 6.99992 8.99992ZM8.58992 22.5766L11.0649 25.0533C11.2971 25.2856 11.5728 25.4699 11.8762 25.5956C12.1796 25.7213 12.5048 25.7861 12.8333 25.7861C13.1617 25.7861 13.4869 25.7213 13.7903 25.5956C14.0937 25.4699 14.3694 25.2856 14.6016 25.0533L17.0766 22.5766C21.6566 23.1066 23.6666 24.3133 23.6666 24.8333C23.6666 25.5799 19.9816 27.3333 12.8333 27.3333C5.68492 27.3333 1.99992 25.5799 1.99992 24.8333C1.99992 24.3133 4.00992 23.1066 8.58992 22.5766Z" fill="white"/>
</svg>
