<svg width="6" height="10" viewBox="0 0 6 10" fill="none" xmlns="http://www.w3.org/2000/svg">
<path d="M5.99994 5.00006C6.0007 5.13167 5.97548 5.26213 5.92571 5.38397C5.87595 5.5058 5.80262 5.61662 5.70994 5.71006L1.70994 9.71006C1.52164 9.89836 1.26624 10.0042 0.999941 10.0042C0.733639 10.0042 0.478245 9.89836 0.289941 9.71006C0.101637 9.52176 -0.00415043 9.26636 -0.00415045 9.00006C-0.00415046 8.73376 0.101637 8.47836 0.289941 8.29006L3.58994 5.00006L0.299941 1.71006C0.136114 1.51876 0.0505076 1.27268 0.0602288 1.02101C0.0699499 0.769331 0.174283 0.530591 0.352377 0.352496C0.530472 0.174402 0.769211 0.0700712 1.02089 0.0603494C1.27256 0.0506286 1.51864 0.136233 1.70994 0.300059L5.70994 4.30006C5.89468 4.48632 5.99884 4.73772 5.99994 5.00006Z" fill="#F8B602"/>
</svg>
